<svg width="25" height="25" viewBox="0 0 25 25" fill="none" xmlns="http://www.w3.org/2000/svg">
<path d="M9.79003 7.21002C9.69733 7.30254 9.62378 7.41242 9.5736 7.5334C9.52342 7.65437 9.49759 7.78405 9.49759 7.91502C9.49759 8.04599 9.52342 8.17567 9.5736 8.29665C9.62378 8.41762 9.69733 8.52751 9.79003 8.62002L13.67 12.5L9.79003 16.38C9.69745 16.4726 9.62401 16.5825 9.5739 16.7035C9.5238 16.8244 9.49801 16.9541 9.49801 17.085C9.49801 17.216 9.5238 17.3456 9.5739 17.4666C9.62401 17.5875 9.69745 17.6974 9.79003 17.79C9.88261 17.8826 9.99252 17.956 10.1135 18.0061C10.2345 18.0563 10.3641 18.082 10.495 18.082C10.626 18.082 10.7556 18.0563 10.8766 18.0061C10.9975 17.956 11.1074 17.8826 11.2 17.79L15.79 13.2C15.8827 13.1075 15.9563 12.9976 16.0065 12.8766C16.0566 12.7557 16.0825 12.626 16.0825 12.495C16.0825 12.3641 16.0566 12.2344 16.0065 12.1134C15.9563 11.9924 15.8827 11.8825 15.79 11.79L11.2 7.20002C10.82 6.82002 10.18 6.82002 9.79003 7.21002Z" fill="black"/>
</svg>
